<svg width="30" height="29" viewBox="0 0 30 29" fill="none" xmlns="http://www.w3.org/2000/svg">
<path id="Vector" d="M17.7296 29C17.4344 29 17.1473 28.9152 16.9111 28.7583L11.4549 25.1333C11.2854 25.0208 11.1479 24.8748 11.0532 24.7071C10.9585 24.5393 10.9092 24.3543 10.9092 24.1667V17.3758L1.33889 7.83846C0.659201 7.15923 0.215412 6.32057 0.0608637 5.42328C-0.0936849 4.526 0.0475833 3.60827 0.467689 2.78039C0.887795 1.95252 1.56886 1.24973 2.42903 0.756496C3.2892 0.263263 4.29187 0.000573256 5.31653 0L24.6864 0C25.7109 0.0010646 26.7133 0.264189 27.5732 0.757754C28.433 1.25132 29.1136 1.95432 29.5333 2.78229C29.9529 3.61026 30.0938 4.52796 29.9388 5.42511C29.7839 6.32227 29.3398 7.1607 28.6599 7.83967L19.0937 17.3758V27.7917C19.0937 28.1121 18.9499 28.4195 18.6941 28.6461C18.4383 28.8727 18.0914 29 17.7296 29ZM13.6374 23.5625L16.3655 25.375V16.9167C16.3658 16.6208 16.4886 16.3353 16.7106 16.1143L26.6247 6.23379C26.9553 5.90281 27.171 5.49434 27.246 5.05742C27.3209 4.6205 27.2519 4.17371 27.0473 3.77067C26.8426 3.36764 26.511 3.02549 26.0922 2.78531C25.6734 2.54514 25.1853 2.41713 24.6864 2.41667H5.31653C4.81789 2.41734 4.33006 2.54541 3.91154 2.78553C3.49302 3.02565 3.16157 3.36762 2.95696 3.77042C2.75235 4.17323 2.68326 4.61977 2.75797 5.05649C2.83268 5.49321 3.04803 5.90157 3.37818 6.23258L13.2936 16.1143C13.5152 16.3355 13.6375 16.621 13.6374 16.9167V23.5625Z" fill="white"/>
</svg>
