<svg width="60" height="48" viewBox="0 0 60 48" fill="none" xmlns="http://www.w3.org/2000/svg">
<path d="M57.5 21.0833H2.5C1.11929 21.0833 0 22.3891 0 23.9999C0 25.6108 1.11929 26.9166 2.5 26.9166H57.5C58.8807 26.9166 60 25.6108 60 23.9999C60 22.3891 58.8807 21.0833 57.5 21.0833Z" fill="#788D63"/>
<path d="M57.5 0.666504H2.5C1.11929 0.666504 0 1.9724 0 3.5832C0 5.194 1.11929 6.4999 2.5 6.4999H57.5C58.8807 6.4999 60 5.194 60 3.5832C60 1.9724 58.8807 0.666504 57.5 0.666504Z" fill="#788D63"/>
<path d="M57.5 41.4999H2.5C1.11929 41.4999 0 42.8057 0 44.4166C0 46.0274 1.11929 47.3332 2.5 47.3332H57.5C58.8807 47.3332 60 46.0274 60 44.4166C60 42.8057 58.8807 41.4999 57.5 41.4999Z" fill="#788D63"/>
</svg>
