<svg width="24" height="24" viewBox="0 0 24 24" fill="none" xmlns="http://www.w3.org/2000/svg">
<g id="&#240;&#159;&#166;&#134; icon &#34;login&#34;">
<g id="Group">
<path id="Vector" d="M15.9878 23.7369H15.8393C10.7651 23.7369 8.31945 21.737 7.8966 17.2571C7.85089 16.7885 8.19374 16.3657 8.67373 16.32C9.14229 16.2743 9.56513 16.6285 9.61085 17.0971C9.94227 20.6856 11.6337 22.0227 15.8507 22.0227H15.9993C20.6506 22.0227 22.2963 20.377 22.2963 15.7257V8.27442C22.2963 3.6231 20.6506 1.97743 15.9993 1.97743H15.8507C11.6108 1.97743 9.91941 3.3374 9.61085 6.99445C9.5537 7.46301 9.16514 7.81729 8.67373 7.77158C8.19374 7.73729 7.85089 7.31445 7.88517 6.84588C8.27374 2.29742 10.7308 0.263184 15.8393 0.263184H15.9878C21.5991 0.263184 23.9991 2.66313 23.9991 8.27442V15.7257C23.9991 21.337 21.5991 23.7369 15.9878 23.7369Z" fill="white"/>
<path id="Vector_2" d="M15.5768 12.8572H0.857123C0.388562 12.8572 0 12.4686 0 12.0001C0 11.5315 0.388562 11.1429 0.857123 11.1429H15.5768C16.0453 11.1429 16.4339 11.5315 16.4339 12.0001C16.4339 12.4686 16.0568 12.8572 15.5768 12.8572Z" fill="white"/>
<path id="Vector_3" d="M13.0281 16.6857C12.811 16.6857 12.5938 16.6057 12.4224 16.4343C12.091 16.1029 12.091 15.5543 12.4224 15.2229L15.6452 12.0001L12.4224 8.77735C12.091 8.44593 12.091 7.89737 12.4224 7.56595C12.7538 7.23453 13.3024 7.23453 13.6338 7.56595L17.4623 11.3944C17.7937 11.7259 17.7937 12.2744 17.4623 12.6058L13.6338 16.4343C13.4624 16.6057 13.2452 16.6857 13.0281 16.6857Z" fill="white"/>
</g>
</g>
</svg>
