<svg width="26" height="27" viewBox="0 0 26 27" fill="none" xmlns="http://www.w3.org/2000/svg">
<g clip-path="url(#clip0_1_1228)">
<path d="M24.375 11.8125H14.625V1.6875C14.625 0.755525 13.8975 0 13 0C12.1025 0 11.375 0.755525 11.375 1.6875V11.8125H1.625C0.727543 11.8125 0 12.568 0 13.5C0 14.432 0.727543 15.1875 1.625 15.1875H11.375V25.3125C11.375 26.2445 12.1025 27 13 27C13.8975 27 14.625 26.2445 14.625 25.3125V15.1875H24.375C25.2725 15.1875 26 14.432 26 13.5C26 12.568 25.2725 11.8125 24.375 11.8125Z" fill="#788D63"/>
</g>
<defs>
<clipPath id="clip0_1_1228">
<rect width="26" height="27" fill="white"/>
</clipPath>
</defs>
</svg>
