<svg width="27" height="27" viewBox="0 0 27 27" fill="none" xmlns="http://www.w3.org/2000/svg">
<path d="M21.375 6.75V4.5C21.375 3.30653 20.9009 2.16193 20.057 1.31802C19.2131 0.474106 18.0685 0 16.875 0L10.125 0C8.93153 0 7.78693 0.474106 6.94302 1.31802C6.09911 2.16193 5.625 3.30653 5.625 4.5V6.75C4.13371 6.75179 2.704 7.34499 1.6495 8.3995C0.594992 9.454 0.00178634 10.8837 0 12.375L0 18C0.00178634 19.4913 0.594992 20.921 1.6495 21.9755C2.704 23.03 4.13371 23.6232 5.625 23.625C5.625 24.5201 5.98058 25.3786 6.61351 26.0115C7.24645 26.6444 8.10489 27 9 27H18C18.8951 27 19.7536 26.6444 20.3865 26.0115C21.0194 25.3786 21.375 24.5201 21.375 23.625C22.8663 23.6232 24.296 23.03 25.3505 21.9755C26.405 20.921 26.9982 19.4913 27 18V12.375C26.9982 10.8837 26.405 9.454 25.3505 8.3995C24.296 7.34499 22.8663 6.75179 21.375 6.75ZM7.875 4.5C7.875 3.90326 8.11205 3.33097 8.53401 2.90901C8.95597 2.48705 9.52826 2.25 10.125 2.25H16.875C17.4717 2.25 18.044 2.48705 18.466 2.90901C18.8879 3.33097 19.125 3.90326 19.125 4.5V6.75H7.875V4.5ZM19.125 23.625C19.125 23.9234 19.0065 24.2095 18.7955 24.4205C18.5845 24.6315 18.2984 24.75 18 24.75H9C8.70163 24.75 8.41548 24.6315 8.2045 24.4205C7.99353 24.2095 7.875 23.9234 7.875 23.625V19.125C7.875 18.8266 7.99353 18.5405 8.2045 18.3295C8.41548 18.1185 8.70163 18 9 18H18C18.2984 18 18.5845 18.1185 18.7955 18.3295C19.0065 18.5405 19.125 18.8266 19.125 19.125V23.625ZM24.75 18C24.75 18.8951 24.3944 19.7536 23.7615 20.3865C23.1286 21.0194 22.2701 21.375 21.375 21.375V19.125C21.375 18.2299 21.0194 17.3714 20.3865 16.7385C19.7536 16.1056 18.8951 15.75 18 15.75H9C8.10489 15.75 7.24645 16.1056 6.61351 16.7385C5.98058 17.3714 5.625 18.2299 5.625 19.125V21.375C4.72989 21.375 3.87145 21.0194 3.23851 20.3865C2.60558 19.7536 2.25 18.8951 2.25 18V12.375C2.25 11.4799 2.60558 10.6214 3.23851 9.98851C3.87145 9.35558 4.72989 9 5.625 9H21.375C22.2701 9 23.1286 9.35558 23.7615 9.98851C24.3944 10.6214 24.75 11.4799 24.75 12.375V18Z" fill="white"/>
</svg>
