<svg width="6" height="10" viewBox="0 0 6 10" fill="none" xmlns="http://www.w3.org/2000/svg">
<path d="M0.247421 0.207686C0.169022 0.274081 0.106794 0.353072 0.0643287 0.440105C0.0218632 0.527138 0 0.620488 0 0.714772C0 0.809055 0.0218632 0.902406 0.0643287 0.989438C0.106794 1.07647 0.169022 1.15546 0.247421 1.22186L4.07837 4.49292C4.15677 4.55931 4.219 4.6383 4.26146 4.72533C4.30393 4.81237 4.32579 4.90572 4.32579 5C4.32579 5.09428 4.30393 5.18763 4.26146 5.27467C4.219 5.3617 4.15677 5.44069 4.07837 5.50709L0.247421 8.77814C0.169022 8.84454 0.106794 8.92353 0.0643287 9.01056C0.0218632 9.0976 0 9.19095 0 9.28523C0 9.37951 0.0218632 9.47286 0.0643287 9.5599C0.106794 9.64693 0.169022 9.72592 0.247421 9.79231C0.404141 9.92534 0.616141 10 0.837119 10C1.0581 10 1.2701 9.92534 1.42682 9.79231L5.26613 6.51411C5.73605 6.11237 6 5.5678 6 5C6 4.43221 5.73605 3.88763 5.26613 3.48589L1.42682 0.207686C1.2701 0.0746651 1.0581 0 0.837119 0C0.616141 0 0.404141 0.0746651 0.247421 0.207686Z" fill="white"/>
</svg>
