<svg width="30" height="28" viewBox="0 0 30 28" fill="none" xmlns="http://www.w3.org/2000/svg">
<path d="M23.7138 8.21906L30 1.81868L28.2138 0L21.9062 6.42074L19.1487 3.67681C18.6962 3.22901 18.0949 2.97087 17.4641 2.95366C16.8333 2.93645 16.2192 3.16142 15.7437 3.58391C13.4235 5.72311 10.7241 7.39254 7.79 8.50287L0 10.8281V11.7902C0.0514391 16.1339 1.79257 20.2795 4.8416 23.318C7.89063 26.3566 11.9987 28.04 16.265 27.9993H17.8162L18.1425 27.7676C20.6911 26.1041 22.8056 23.8363 24.3047 21.1584C25.8038 18.4806 26.6429 15.4726 26.75 12.3922C26.7595 12.0375 26.6965 11.6847 26.565 11.356C26.4335 11.0274 26.2365 10.7302 25.9863 10.4832L23.7138 8.21906ZM17.3825 5.51586L24.2288 12.3133C24.1914 13.6111 24 14.8995 23.6588 16.1505L14.9337 7.50126C15.7825 6.88206 16.5998 6.2194 17.3825 5.51586ZM17.015 25.4272H16.265C14.4229 25.4273 12.599 25.0557 10.8988 24.3339C13.0834 23.2164 14.9535 21.5523 16.3337 19.4977L16.9813 18.5304L14.895 17.0846L14.2475 18.0532C13.1063 19.7477 11.5614 21.1197 9.7575 22.0405L8.22125 22.827C6.9722 21.9318 5.87988 20.8292 4.99 19.5651C7.02888 18.8623 8.88906 17.7073 10.4362 16.1836L8.6725 14.3445C7.27553 15.7224 5.57087 16.7343 3.705 17.2934C3.05782 15.8588 2.66793 14.3179 2.55375 12.7435L8.4975 10.9694C10.0006 10.478 11.4379 9.79827 12.7762 8.94577L22.665 18.7455C21.3574 21.4162 19.4164 23.7127 17.0175 25.4272H17.015Z" fill="#788D63"/>
</svg>
