<svg width="22" height="26" viewBox="0 0 22 26" fill="none" xmlns="http://www.w3.org/2000/svg">
<path d="M19.1371 24.9983C18.7672 24.9973 18.4011 24.923 18.0601 24.7796C17.719 24.6363 17.4097 24.4268 17.1501 24.1633L11.0001 18.0493L4.85012 24.1673C4.45515 24.568 3.94861 24.8405 3.39654 24.9491C2.84447 25.0577 2.27247 24.9975 1.75512 24.7763C1.23264 24.5661 0.785669 24.2033 0.472582 23.7352C0.159494 23.2671 -0.00515925 22.7154 0.000123236 22.1523V5.99829C0.000123236 4.67221 0.526907 3.40044 1.46459 2.46276C2.40227 1.52508 3.67404 0.998291 5.00012 0.998291L17.0001 0.998291C17.6567 0.998291 18.3069 1.12762 18.9135 1.37889C19.5202 1.63017 20.0714 1.99846 20.5357 2.46276C21 2.92705 21.3682 3.47825 21.6195 4.08487C21.8708 4.6915 22.0001 5.34168 22.0001 5.99829V22.1523C22.0057 22.715 21.8417 23.2663 21.5293 23.7343C21.217 24.2024 20.7709 24.5655 20.2491 24.7763C19.8969 24.9236 19.5189 24.9991 19.1371 24.9983ZM5.00012 2.99829C4.20447 2.99829 3.44141 3.31436 2.8788 3.87697C2.31619 4.43958 2.00012 5.20264 2.00012 5.99829V22.1523C1.99976 22.3189 2.04879 22.4819 2.14102 22.6207C2.23325 22.7595 2.36455 22.8678 2.51831 22.932C2.67208 22.9962 2.84143 23.0134 3.00496 22.9814C3.1685 22.9494 3.31888 22.8697 3.43712 22.7523L10.3001 15.9313C10.4875 15.745 10.7409 15.6405 11.0051 15.6405C11.2693 15.6405 11.5228 15.745 11.7101 15.9313L18.5651 22.7503C18.6834 22.8677 18.8337 22.9474 18.9973 22.9794C19.1608 23.0114 19.3302 22.9942 19.4839 22.93C19.6377 22.8658 19.769 22.7575 19.8612 22.6187C19.9535 22.4799 20.0025 22.3169 20.0021 22.1503V5.99829C20.0021 5.20264 19.6861 4.43958 19.1234 3.87697C18.5608 3.31436 17.7978 2.99829 17.0021 2.99829H5.00012Z" fill="white"/>
</svg>
