<svg width="23" height="23" viewBox="0 0 23 23" fill="none" xmlns="http://www.w3.org/2000/svg">
<path d="M22.8898 15.523L20.2755 6.54589C19.7173 4.62556 18.5009 2.93831 16.82 1.75267C15.1391 0.567033 13.0903 -0.0488542 10.9996 0.00302913C8.90885 0.0549125 6.89643 0.771585 5.28258 2.03898C3.66873 3.30638 2.5462 5.05168 2.09365 6.99709L0.0716528 15.6667C-0.0261866 16.0867 -0.0238001 16.5223 0.0786362 16.9413C0.181073 17.3604 0.380945 17.7521 0.663507 18.0877C0.946068 18.4233 1.30411 18.6942 1.71121 18.8803C2.11832 19.0665 2.5641 19.1632 3.01567 19.1633H6.64239C6.87316 20.2461 7.48973 21.2196 8.38763 21.9188C9.28552 22.618 10.4095 23 11.5692 23C12.7289 23 13.8529 22.618 14.7508 21.9188C15.6486 21.2196 16.2652 20.2461 16.496 19.1633H19.985C20.4496 19.1631 20.9079 19.0606 21.3241 18.8639C21.7404 18.6672 22.1033 18.3815 22.3845 18.0291C22.6658 17.6768 22.8578 17.2673 22.9456 16.8326C23.0335 16.3978 23.0137 15.9497 22.8898 15.523ZM11.5692 21.0793C10.9475 21.0768 10.3419 20.8914 9.83506 20.5485C9.32823 20.2055 8.945 19.7217 8.73779 19.1633H14.4006C14.1934 19.7217 13.8101 20.2055 13.3033 20.5485C12.7965 20.8914 12.1908 21.0768 11.5692 21.0793ZM20.7843 16.869C20.6905 16.9875 20.5689 17.0834 20.4292 17.1491C20.2896 17.2148 20.1357 17.2485 19.9799 17.2474H3.01567C2.86511 17.2474 2.71648 17.2151 2.58075 17.153C2.44502 17.091 2.32565 17.0006 2.23145 16.8887C2.13726 16.7768 2.07065 16.6462 2.03653 16.5065C2.00241 16.3668 2.00166 16.2216 2.03433 16.0815L4.05633 7.41189C4.41262 5.88509 5.29437 4.51557 6.56141 3.52105C7.82845 2.52652 9.40806 1.96408 11.0491 1.92312C12.6902 1.88216 14.2986 2.36503 15.6185 3.29498C16.9385 4.22494 17.8943 5.54859 18.334 7.05553L20.9482 16.0327C20.9909 16.1746 20.9983 16.3241 20.9699 16.4693C20.9414 16.6144 20.8779 16.7513 20.7843 16.869Z" fill="white"/>
</svg>
