<svg width="22" height="22" viewBox="0 0 22 22" fill="none" xmlns="http://www.w3.org/2000/svg">
<path id="Vector" d="M21.1928 0.807973C20.8641 0.475332 20.4551 0.233076 20.0055 0.104613C19.5558 -0.0238512 19.0806 -0.0341808 18.6258 0.0746218L3.95715 3.16387C3.1124 3.2797 2.31678 3.62906 1.65987 4.1726C1.00296 4.71614 0.510869 5.43227 0.239006 6.24033C-0.0328563 7.0484 -0.0736896 7.91632 0.121105 8.74634C0.315899 9.57635 0.738584 10.3355 1.34156 10.9383L2.9166 12.5123C3.00185 12.5975 3.06945 12.6987 3.11554 12.81C3.16164 12.9214 3.18531 13.0408 3.18522 13.1613V16.0654C3.18724 16.4737 3.28125 16.8763 3.46025 17.2433L3.45292 17.2497L3.47676 17.2735C3.74539 17.8136 4.18413 18.2504 4.72542 18.5166L4.74926 18.5404L4.75568 18.5331C5.12272 18.7121 5.52538 18.8061 5.93375 18.8081H8.83813C9.08113 18.8079 9.31426 18.9042 9.4863 19.0758L11.0604 20.6497C11.4826 21.0765 11.9851 21.4156 12.539 21.6474C13.0929 21.8791 13.6871 21.999 14.2875 22C14.7879 21.9994 15.2848 21.9176 15.759 21.758C16.5597 21.4951 17.2711 21.0137 17.8128 20.368C18.3545 19.7224 18.705 18.9383 18.8247 18.1041L21.9189 3.40495C22.0333 2.94628 22.0266 2.46573 21.8993 2.01045C21.772 1.55517 21.5285 1.1408 21.1928 0.807973ZM4.21477 11.2179L2.63881 9.64394C2.27184 9.28585 2.01464 8.83052 1.89739 8.33139C1.78015 7.83226 1.80773 7.31005 1.97689 6.82604C2.1409 6.32949 2.44409 5.89049 2.8504 5.56125C3.25672 5.23201 3.74905 5.02638 4.26886 4.96883L18.7917 1.91167L5.01696 15.6868V13.1613C5.01835 12.8004 4.94817 12.4429 4.81047 12.1093C4.67278 11.7757 4.47031 11.4727 4.21477 11.2179ZM17.0232 17.7906C16.9528 18.2969 16.7427 18.7736 16.4164 19.1671C16.0901 19.5606 15.6606 19.8554 15.176 20.0184C14.6914 20.1814 14.171 20.2062 13.6732 20.0898C13.1754 19.9735 12.7198 19.7208 12.3577 19.3599L10.7808 17.7832C10.5263 17.5273 10.2235 17.3244 9.89007 17.1863C9.55662 17.0481 9.19908 16.9775 8.83813 16.9784H6.31238L20.089 3.20787L17.0232 17.7906Z" fill="white"/>
</svg>
