<svg width="18" height="20" viewBox="0 0 18 20" fill="none" xmlns="http://www.w3.org/2000/svg">
<mask id="path-1-inside-1_266_324" fill="white">
<path d="M8.58984 10C11.3512 10 13.5898 7.76142 13.5898 5C13.5898 2.23858 11.3512 0 8.58984 0C5.82842 0 3.58984 2.23858 3.58984 5C3.58984 7.76142 5.82842 10 8.58984 10Z"/>
<path d="M17.18 20C17.18 16.13 13.33 13 8.58999 13C3.85 13 0 16.13 0 20"/>
</mask>
<path d="M16.18 20C16.18 20.5523 16.6277 21 17.18 21C17.7323 21 18.18 20.5523 18.18 20H16.18ZM-1 20C-1 20.5523 -0.552285 21 0 21C0.552285 21 1 20.5523 1 20H-1ZM8.58984 11C11.9035 11 14.5898 8.3137 14.5898 5H12.5898C12.5898 7.20914 10.7989 9 8.58984 9V11ZM14.5898 5C14.5898 1.6863 11.9035 -1 8.58984 -1V1C10.7989 1 12.5898 2.79086 12.5898 5H14.5898ZM8.58984 -1C5.27614 -1 2.58984 1.6863 2.58984 5H4.58984C4.58984 2.79086 6.3807 1 8.58984 1V-1ZM2.58984 5C2.58984 8.3137 5.27614 11 8.58984 11V9C6.3807 9 4.58984 7.20914 4.58984 5H2.58984ZM18.18 20C18.18 15.3955 13.6805 12 8.58999 12V14C12.9795 14 16.18 16.8645 16.18 20H18.18ZM8.58999 12C3.4995 12 -1 15.3955 -1 20H1C1 16.8645 4.2005 14 8.58999 14V12Z" fill="black" mask="url(#path-1-inside-1_266_324)"/>
</svg>
