<svg width="20" height="20" viewBox="0 0 20 20" fill="none" xmlns="http://www.w3.org/2000/svg">
<mask id="path-1-inside-1_266_326" fill="white">
<path d="M9.49984 10C12.2323 10 14.4474 7.76142 14.4474 5C14.4474 2.23858 12.2323 0 9.49984 0C6.76735 0 4.55223 2.23858 4.55223 5C4.55223 7.76142 6.76735 10 9.49984 10Z"/>
<path d="M18 20C18 16.13 14.1903 13 9.49999 13C4.80966 13 1 16.13 1 20"/>
</mask>
<path d="M16.75 20C16.75 20.6904 17.3096 21.25 18 21.25C18.6904 21.25 19.25 20.6904 19.25 20H16.75ZM-0.25 20C-0.25 20.6904 0.309644 21.25 1 21.25C1.69036 21.25 2.25 20.6904 2.25 20H-0.25ZM9.49984 11.25C12.935 11.25 15.6974 8.43933 15.6974 5H13.1974C13.1974 7.08351 11.5295 8.75 9.49984 8.75V11.25ZM15.6974 5C15.6974 1.56067 12.935 -1.25 9.49984 -1.25V1.25C11.5295 1.25 13.1974 2.91649 13.1974 5H15.6974ZM9.49984 -1.25C6.06462 -1.25 3.30223 1.56067 3.30223 5H5.80223C5.80223 2.91649 7.47009 1.25 9.49984 1.25V-1.25ZM3.30223 5C3.30223 8.43933 6.06462 11.25 9.49984 11.25V8.75C7.47009 8.75 5.80223 7.08351 5.80223 5H3.30223ZM19.25 20C19.25 15.2228 14.6418 11.75 9.49999 11.75V14.25C13.7389 14.25 16.75 17.0372 16.75 20H19.25ZM9.49999 11.75C4.35822 11.75 -0.25 15.2228 -0.25 20H2.25C2.25 17.0372 5.2611 14.25 9.49999 14.25V11.75Z" fill="black" mask="url(#path-1-inside-1_266_326)"/>
</svg>
