<svg width="19" height="19" viewBox="0 0 19 19" fill="none" xmlns="http://www.w3.org/2000/svg">
<path id="Vector" d="M5.76925 6.5627C6.1071 6.87231 6.1071 7.37354 5.76925 7.68235C5.43141 7.99196 4.88447 7.99196 4.54749 7.68235C4.20965 7.37274 4.20965 6.87151 4.54749 6.5627C4.88533 6.25309 5.43227 6.25309 5.76925 6.5627ZM18.3913 10.6786L18.0223 11.0278C18.2262 11.6732 18.0517 12.3977 17.4979 12.9053L11.6517 18.4378C11.2542 18.802 10.7332 19 10.1785 19C9.62378 19 9.10275 18.802 8.71047 18.4426L0 10.4601L0.873553 3.2188L8.78219 2.22742L17.4979 10.2138C17.529 10.2423 17.5583 10.2716 17.5868 10.3009L17.7761 10.122C18.0094 9.90898 18.1347 9.62946 18.1347 9.33174C18.1347 9.03401 18.0085 8.75449 17.7813 8.54624L9.36888 0.837758L2.21801 1.73411L2.10137 0.949406L9.67648 0L18.3921 7.98641C19.2026 8.72836 19.2026 9.9359 18.3921 10.6778L18.3913 10.6786ZM16.887 10.7745L8.47545 3.06518L1.65811 3.91957L0.904659 10.1695L9.32136 17.8827C9.77844 18.3024 10.5785 18.3024 11.0356 17.8827L16.8818 12.3502C17.3596 11.9123 17.3596 11.2076 16.887 10.7745Z" fill="#8F8F8F"/>
</svg>
