<svg width="25" height="27" viewBox="0 0 25 27" fill="none" xmlns="http://www.w3.org/2000/svg">
<g clip-path="url(#clip0_1_1805)">
<path d="M21.8752 4.98665H18.646C18.4042 3.76402 17.7646 2.66545 16.8348 1.8761C15.905 1.08675 14.742 0.654896 13.5418 0.65332L11.4585 0.65332C10.2583 0.654896 9.09529 1.08675 8.16553 1.8761C7.23577 2.66545 6.5961 3.76402 6.35433 4.98665H3.12516C2.8489 4.98665 2.58394 5.10079 2.38859 5.30396C2.19324 5.50712 2.0835 5.78267 2.0835 6.06999C2.0835 6.35731 2.19324 6.63285 2.38859 6.83602C2.58394 7.03918 2.8489 7.15332 3.12516 7.15332H4.16683V21.2367C4.16848 22.6727 4.71775 24.0495 5.69414 25.0649C6.67054 26.0804 7.99434 26.6516 9.37516 26.6533H15.6252C17.006 26.6516 18.3298 26.0804 19.3062 25.0649C20.2826 24.0495 20.8318 22.6727 20.8335 21.2367V7.15332H21.8752C22.1514 7.15332 22.4164 7.03918 22.6117 6.83602C22.8071 6.63285 22.9168 6.35731 22.9168 6.06999C22.9168 5.78267 22.8071 5.50712 22.6117 5.30396C22.4164 5.10079 22.1514 4.98665 21.8752 4.98665ZM11.4585 2.81999H13.5418C14.1879 2.82081 14.818 3.02948 15.3456 3.41738C15.8732 3.80529 16.2725 4.35344 16.4887 4.98665H8.51162C8.72785 4.35344 9.12714 3.80529 9.65473 3.41738C10.1823 3.02948 10.8124 2.82081 11.4585 2.81999ZM18.7502 21.2367C18.7502 22.0986 18.4209 22.9253 17.8349 23.5348C17.2488 24.1442 16.454 24.4867 15.6252 24.4867H9.37516C8.54636 24.4867 7.75151 24.1442 7.16545 23.5348C6.5794 22.9253 6.25016 22.0986 6.25016 21.2367V7.15332H18.7502V21.2367Z" fill="#788D63"/>
<path d="M10.4167 20.1535C10.6929 20.1535 10.9579 20.0393 11.1532 19.8362C11.3486 19.633 11.4583 19.3575 11.4583 19.0701V12.5701C11.4583 12.2828 11.3486 12.0073 11.1532 11.8041C10.9579 11.601 10.6929 11.4868 10.4167 11.4868C10.1404 11.4868 9.87545 11.601 9.6801 11.8041C9.48475 12.0073 9.375 12.2828 9.375 12.5701V19.0701C9.375 19.3575 9.48475 19.633 9.6801 19.8362C9.87545 20.0393 10.1404 20.1535 10.4167 20.1535Z" fill="#788D63"/>
<path d="M14.5832 20.1535C14.8594 20.1535 15.1244 20.0393 15.3197 19.8362C15.5151 19.633 15.6248 19.3575 15.6248 19.0701V12.5701C15.6248 12.2828 15.5151 12.0073 15.3197 11.8041C15.1244 11.601 14.8594 11.4868 14.5832 11.4868C14.3069 11.4868 14.042 11.601 13.8466 11.8041C13.6513 12.0073 13.5415 12.2828 13.5415 12.5701V19.0701C13.5415 19.3575 13.6513 19.633 13.8466 19.8362C14.042 20.0393 14.3069 20.1535 14.5832 20.1535Z" fill="#788D63"/>
</g>
<defs>
<clipPath id="clip0_1_1805">
<rect width="25" height="26" fill="white" transform="translate(0 0.65332)"/>
</clipPath>
</defs>
</svg>
