<svg width="24" height="24" viewBox="0 0 24 24" fill="none" xmlns="http://www.w3.org/2000/svg">
<path d="M5 19H9.414L23.057 5.35698C23.6414 4.77115 23.9696 3.97746 23.9696 3.14998C23.9696 2.32251 23.6414 1.52881 23.057 0.94298C22.4627 0.374874 21.6722 0.0578295 20.85 0.0578295C20.0278 0.0578295 19.2373 0.374874 18.643 0.94298L5 14.586V19ZM7 15.414L20.057 2.35698C20.2706 2.15294 20.5546 2.03907 20.85 2.03907C21.1454 2.03907 21.4294 2.15294 21.643 2.35698C21.8529 2.5675 21.9708 2.85267 21.9708 3.14998C21.9708 3.44729 21.8529 3.73247 21.643 3.94298L8.586 17H7V15.414Z" fill="#788D63"/>
<path d="M23.621 7.622L22 9.243V16H16V22H2V3C2 2.73478 2.10536 2.48043 2.29289 2.29289C2.48043 2.10536 2.73478 2 3 2H14.758L16.379 0.379C16.525 0.243624 16.6789 0.117066 16.84 0H3C2.20435 0 1.44129 0.31607 0.87868 0.87868C0.31607 1.44129 0 2.20435 0 3V24H18.414L24 18.414V7.161C23.8827 7.32186 23.7561 7.47579 23.621 7.622ZM18 21.586V18H21.586L18 21.586Z" fill="#788D63"/>
</svg>
