<svg width="21" height="23" viewBox="0 0 21 23" fill="none" xmlns="http://www.w3.org/2000/svg">
<path d="M20.5115 0.535064C20.1986 0.192463 19.7742 0 19.3318 0C18.8893 0 18.465 0.192463 18.1521 0.535064L10.5 8.91593L2.84791 0.535064C2.535 0.192463 2.11067 0 1.66822 0C1.22577 0 0.801441 0.192463 0.488537 0.535064C0.175727 0.877769 0 1.34251 0 1.8271C0 2.31168 0.175727 2.77643 0.488537 3.11913L8.14063 11.5L0.488537 19.8809C0.175727 20.2236 0 20.6883 0 21.1729C0 21.6575 0.175727 22.1222 0.488537 22.4649C0.801441 22.8075 1.22577 23 1.66822 23C2.11067 23 2.535 22.8075 2.84791 22.4649L10.5 14.0841L18.1521 22.4649C18.465 22.8075 18.8893 23 19.3318 23C19.7742 23 20.1986 22.8075 20.5115 22.4649C20.8243 22.1222 21 21.6575 21 21.1729C21 20.6883 20.8243 20.2236 20.5115 19.8809L12.8594 11.5L20.5115 3.11913C20.8243 2.77643 21 2.31168 21 1.8271C21 1.34251 20.8243 0.877769 20.5115 0.535064Z" fill="#788D63"/>
</svg>
