<svg width="23" height="26" viewBox="0 0 23 26" fill="none" xmlns="http://www.w3.org/2000/svg">
<path id="Vector" d="M22.8401 5.55091C22.1091 2.30764 18.0025 0.592761 15.4869 2.33785C14.3989 1.25431 12.9772 0.65332 11.5019 0.65332C10.0267 0.65332 8.60491 1.25431 7.51689 2.33785C1.35639 -1.07836 -3.42947 8.70249 3.19276 11.8103C3.3719 11.8665 3.53042 11.9822 3.64618 12.1411C3.76193 12.3001 3.82914 12.4944 3.83841 12.6969V20.965C3.83841 22.2084 4.29257 23.4009 5.10099 24.2801C5.9094 25.1594 7.00585 25.6533 8.14913 25.6533H14.8547C15.4208 25.6533 15.9813 25.5321 16.5043 25.2964C17.0273 25.0608 17.5025 24.7155 17.9028 24.2801C18.3031 23.8448 18.6206 23.328 18.8373 22.7591C19.0539 22.1903 19.1654 21.5807 19.1654 20.965V12.6969C19.1747 12.4944 19.2419 12.3001 19.3576 12.1411C19.4734 11.9822 19.6319 11.8665 19.8111 11.8103C20.9453 11.3696 21.886 10.4817 22.4469 9.32249C23.0079 8.16329 23.1482 6.81726 22.8401 5.55091ZM17.2495 20.965C17.2495 21.6558 16.9972 22.3183 16.5481 22.8068C16.099 23.2952 15.4898 23.5696 14.8547 23.5696H8.14913C7.79464 23.5614 7.4459 23.4707 7.12642 23.3034C6.80694 23.1361 6.52417 22.8963 6.29719 22.6001C6.0702 22.3038 5.90428 21.9581 5.81063 21.5862C5.71697 21.2142 5.69776 20.8248 5.75428 20.4441H17.2495V20.965ZM19.1654 9.84644C18.6125 10.0447 18.1305 10.4262 17.7869 10.9373C17.4433 11.4485 17.2554 12.0638 17.2495 12.6969V18.3604H5.75428V12.6969C5.74837 12.0638 5.56047 11.4485 5.2169 10.9373C4.87333 10.4262 4.39131 10.0447 3.83841 9.84644C3.15481 9.57892 2.58845 9.04207 2.2514 8.34211C1.91435 7.64215 1.83118 6.83009 2.01832 6.06662C2.57968 3.87874 5.59047 2.96296 6.98332 4.50385C7.08323 4.61318 7.2041 4.6972 7.33729 4.74991C7.47049 4.80262 7.61273 4.82273 7.75389 4.8088C7.89505 4.79487 8.03164 4.74724 8.15394 4.66932C8.27623 4.5914 8.38122 4.4851 8.46141 4.35799C9.65596 2.19095 13.3421 2.19095 14.5367 4.35799C14.617 4.48495 14.722 4.5911 14.8443 4.66891C14.9666 4.74673 15.1031 4.79428 15.2442 4.80821C15.3853 4.82213 15.5275 4.80208 15.6607 4.74948C15.7939 4.69687 15.9148 4.61301 16.0148 4.50385C16.3924 4.15411 16.843 3.91036 17.3273 3.79394C17.8116 3.67752 18.3148 3.69197 18.7928 3.83603C19.4017 3.98283 19.9504 4.34018 20.357 4.85459C20.7635 5.36899 21.0059 6.01276 21.0478 6.68952C21.0898 7.36628 20.9291 8.03961 20.5897 8.60871C20.2504 9.17781 19.7507 9.61206 19.1654 9.84644Z" fill="white"/>
</svg>
