<svg width="20" height="20" viewBox="0 0 20 20" fill="none" xmlns="http://www.w3.org/2000/svg">
<g id="&#240;&#159;&#166;&#134; icon &#34;lock&#34;">
<g id="Group">
<path id="Vector" d="M15.5812 8.83721C15.1998 8.83721 14.8835 8.52093 14.8835 8.13954V6.27907C14.8835 3.34884 14.0556 1.39535 9.99977 1.39535C5.94396 1.39535 5.11605 3.34884 5.11605 6.27907V8.13954C5.11605 8.52093 4.79977 8.83721 4.41838 8.83721C4.03698 8.83721 3.7207 8.52093 3.7207 8.13954V6.27907C3.7207 3.5814 4.37187 0 9.99977 0C15.6277 0 16.2788 3.5814 16.2788 6.27907V8.13954C16.2788 8.52093 15.9626 8.83721 15.5812 8.83721Z" fill="#8F8F8F"/>
<path id="Vector_2" d="M9.99982 16.7441C8.3347 16.7441 6.97656 15.386 6.97656 13.7209C6.97656 12.0558 8.3347 10.6976 9.99982 10.6976C11.6649 10.6976 13.0231 12.0558 13.0231 13.7209C13.0231 15.386 11.6649 16.7441 9.99982 16.7441ZM9.99982 12.093C9.1068 12.093 8.37191 12.8279 8.37191 13.7209C8.37191 14.6139 9.1068 15.3488 9.99982 15.3488C10.8928 15.3488 11.6277 14.6139 11.6277 13.7209C11.6277 12.8279 10.8928 12.093 9.99982 12.093Z" fill="#8F8F8F"/>
<path id="Vector_3" d="M14.6512 19.9999H5.34884C1.24651 19.9999 0 18.7534 0 14.6511V12.7906C0 8.68828 1.24651 7.44177 5.34884 7.44177H14.6512C18.7535 7.44177 20 8.68828 20 12.7906V14.6511C20 18.7534 18.7535 19.9999 14.6512 19.9999ZM5.34884 8.83712C2.0186 8.83712 1.39535 9.46968 1.39535 12.7906V14.6511C1.39535 17.972 2.0186 18.6046 5.34884 18.6046H14.6512C17.9814 18.6046 18.6047 17.972 18.6047 14.6511V12.7906C18.6047 9.46968 17.9814 8.83712 14.6512 8.83712H5.34884Z" fill="#8F8F8F"/>
</g>
</g>
</svg>
