<svg width="23" height="24" viewBox="0 0 23 24" fill="none" xmlns="http://www.w3.org/2000/svg">
<path d="M22.8898 16.523L20.2755 7.54589C19.7173 5.62556 18.5009 3.93831 16.82 2.75267C15.1391 1.56703 13.0903 0.951146 10.9996 1.00303C8.90885 1.05491 6.89643 1.77159 5.28258 3.03898C3.66873 4.30638 2.5462 6.05168 2.09365 7.99709L0.0716528 16.6667C-0.0261866 17.0867 -0.0238001 17.5223 0.0786362 17.9413C0.181073 18.3604 0.380945 18.7521 0.663507 19.0877C0.946068 19.4233 1.30411 19.6942 1.71121 19.8803C2.11832 20.0665 2.5641 20.1632 3.01567 20.1633H6.64239C6.87316 21.2461 7.48973 22.2196 8.38763 22.9188C9.28552 23.618 10.4095 24 11.5692 24C12.7289 24 13.8529 23.618 14.7508 22.9188C15.6486 22.2196 16.2652 21.2461 16.496 20.1633H19.985C20.4496 20.1631 20.9079 20.0606 21.3241 19.8639C21.7404 19.6672 22.1033 19.3815 22.3845 19.0291C22.6658 18.6768 22.8578 18.2673 22.9456 17.8326C23.0335 17.3978 23.0137 16.9497 22.8898 16.523ZM11.5692 22.0793C10.9475 22.0768 10.3419 21.8914 9.83506 21.5485C9.32823 21.2055 8.945 20.7217 8.73779 20.1633H14.4006C14.1934 20.7217 13.8101 21.2055 13.3033 21.5485C12.7965 21.8914 12.1908 22.0768 11.5692 22.0793ZM20.7843 17.869C20.6905 17.9875 20.5689 18.0834 20.4292 18.1491C20.2896 18.2148 20.1357 18.2485 19.9799 18.2474H3.01567C2.86511 18.2474 2.71648 18.2151 2.58075 18.153C2.44502 18.091 2.32565 18.0006 2.23145 17.8887C2.13726 17.7768 2.07065 17.6462 2.03653 17.5065C2.00241 17.3668 2.00166 17.2216 2.03433 17.0815L4.05633 8.41189C4.41262 6.88509 5.29437 5.51557 6.56141 4.52105C7.82845 3.52652 9.40806 2.96408 11.0491 2.92312C12.6902 2.88216 14.2986 3.36503 15.6185 4.29498C16.9385 5.22494 17.8943 6.54859 18.334 8.05553L20.9482 17.0327C20.9909 17.1746 20.9983 17.3241 20.9699 17.4693C20.9414 17.6144 20.8779 17.7513 20.7843 17.869Z" fill="white"/>
<circle cx="17" cy="3" r="3" fill="#FE7844"/>
</svg>
